<svg xmlns="http://www.w3.org/2000/svg" width="51" height="51" viewBox="0 0 51 51" fill="none">
  <path d="M18.8597 45.1946C29.2755 45.1946 37.7193 36.7509 37.7193 26.335C37.7193 15.9191 29.2755 7.47531 18.8597 7.47531C8.44375 7.47531 0 15.9191 0 26.335C0 36.7509 8.44375 45.1946 18.8597 45.1946Z" fill="#E5EFEF"/>
  <path d="M38.5964 8.3525C39.0809 8.3525 39.4736 7.95977 39.4736 7.47531C39.4736 6.99085 39.0809 6.59811 38.5964 6.59811C38.112 6.59811 37.7192 6.99085 37.7192 7.47531C37.7192 7.95977 38.112 8.3525 38.5964 8.3525Z" fill="#4C241D"/>
  <path d="M28.0701 32.9139C28.5545 32.9139 28.9473 32.5212 28.9473 32.0367C28.9473 31.5522 28.5545 31.1595 28.0701 31.1595C27.5856 31.1595 27.1929 31.5522 27.1929 32.0367C27.1929 32.5212 27.5856 32.9139 28.0701 32.9139Z" fill="#4C241D"/>
  <path d="M46.9298 5.72092C48.141 5.72092 49.1228 4.73909 49.1228 3.52794C49.1228 2.31679 48.141 1.33496 46.9298 1.33496C45.7186 1.33496 44.7368 2.31679 44.7368 3.52794C44.7368 4.73909 45.7186 5.72092 46.9298 5.72092Z" stroke="#4C241D" stroke-width="1.75439" stroke-linecap="round" stroke-linejoin="round"/>
  <path d="M12.1378 5.42528L8.91504 8.64808" stroke="#4C241D" stroke-width="1.75439" stroke-linecap="round" stroke-linejoin="round"/>
  <path d="M8.91504 5.42528L12.1378 8.64808" stroke="#4C241D" stroke-width="1.75439" stroke-linecap="round" stroke-linejoin="round"/>
  <path d="M16.6667 34.6683L11.9904 29.992C11.6789 29.6805 11.488 29.2686 11.4517 28.8296C11.4154 28.3906 11.536 27.953 11.7921 27.5946C11.9493 27.3748 12.1524 27.1919 12.3874 27.0585C12.6223 26.9251 12.8835 26.8444 13.1528 26.8221C13.4221 26.7999 13.693 26.8365 13.9467 26.9294C14.2004 27.0224 14.4308 27.1694 14.622 27.3604L21.479 34.2174C22.1782 34.9166 22.7329 35.7467 23.1113 36.6603C23.4896 37.5739 23.6843 38.5531 23.6842 39.542V49.5806H15.7895V46.6139C15.7884 45.1245 15.2949 43.6772 14.386 42.4972L9.23512 35.8016C7.79603 33.9285 7.01641 31.6322 7.01758 29.27V16.6858C7.01758 16.1042 7.24863 15.5464 7.65989 15.1352C8.07115 14.7239 8.62895 14.4929 9.21056 14.4929C9.79218 14.4929 10.35 14.7239 10.7612 15.1352C11.1725 15.5464 11.4035 16.1042 11.4035 16.6858V28.5279" fill="#FFE8DC"/>
  <path d="M16.6667 34.6683L11.9904 29.992C11.6789 29.6805 11.488 29.2686 11.4517 28.8296C11.4154 28.3906 11.536 27.953 11.7921 27.5946C11.9493 27.3748 12.1524 27.1919 12.3874 27.0585C12.6223 26.9251 12.8835 26.8444 13.1528 26.8221C13.4221 26.7999 13.693 26.8365 13.9467 26.9294C14.2004 27.0224 14.4308 27.1694 14.622 27.3604L21.479 34.2174C22.1782 34.9166 22.7329 35.7467 23.1113 36.6603C23.4896 37.5739 23.6843 38.5531 23.6842 39.542V49.5806H15.7895V46.6139C15.7884 45.1245 15.2949 43.6772 14.386 42.4972L9.23512 35.8016C7.79603 33.9285 7.01641 31.6322 7.01758 29.27V16.6858C7.01758 16.1042 7.24863 15.5464 7.65989 15.1352C8.07115 14.7239 8.62895 14.4929 9.21056 14.4929C9.79218 14.4929 10.35 14.7239 10.7612 15.1352C11.1725 15.5464 11.4035 16.1042 11.4035 16.6858V28.5279" stroke="#4C241D" stroke-width="1.75439" stroke-linecap="round" stroke-linejoin="round"/>
  <path d="M40.3508 34.6683L45.0271 29.992C45.3386 29.6805 45.5295 29.2686 45.5658 28.8296C45.6021 28.3906 45.4815 27.953 45.2254 27.5946C45.0682 27.3748 44.8651 27.1919 44.6301 27.0585C44.3952 26.9251 44.134 26.8444 43.8647 26.8221C43.5954 26.7999 43.3245 26.8365 43.0708 26.9294C42.8171 27.0224 42.5867 27.1694 42.3955 27.3604L35.5385 34.2174C34.8393 34.9166 34.2846 35.7467 33.9062 36.6603C33.5279 37.5739 33.3332 38.5531 33.3333 39.542V49.5806H41.228V46.6139C41.2291 45.1245 41.7226 43.6772 42.6315 42.4972L47.7824 35.8016C49.2215 33.9285 50.0011 31.6322 49.9999 29.27V16.6858C49.9999 16.1042 49.7689 15.5464 49.3576 15.1352C48.9463 14.7239 48.3886 14.4929 47.8069 14.4929C47.2253 14.4929 46.6675 14.7239 46.2563 15.1352C45.845 15.5464 45.614 16.1042 45.614 16.6858V28.5279" fill="#FFE8DC"/>
  <path d="M40.3508 34.6683L45.0271 29.992C45.3386 29.6805 45.5295 29.2686 45.5658 28.8296C45.6021 28.3906 45.4815 27.953 45.2254 27.5946C45.0682 27.3748 44.8651 27.1919 44.6301 27.0585C44.3952 26.9251 44.134 26.8444 43.8647 26.8221C43.5954 26.7999 43.3245 26.8365 43.0708 26.9294C42.8171 27.0224 42.5867 27.1694 42.3955 27.3604L35.5385 34.2174C34.8393 34.9166 34.2846 35.7467 33.9062 36.6603C33.5279 37.5739 33.3332 38.5531 33.3333 39.542V49.5806H41.228V46.6139C41.2291 45.1245 41.7226 43.6772 42.6315 42.4972L47.7824 35.8016C49.2215 33.9285 50.0011 31.6322 49.9999 29.27V16.6858C49.9999 16.1042 49.7689 15.5464 49.3576 15.1352C48.9463 14.7239 48.3886 14.4929 47.8069 14.4929C47.2253 14.4929 46.6675 14.7239 46.2563 15.1352C45.845 15.5464 45.614 16.1042 45.614 16.6858V28.5279" stroke="#4C241D" stroke-width="1.75439" stroke-linecap="round" stroke-linejoin="round"/>
  <path d="M21.4825 9.67708L25.7922 10.1464L28.5089 6.76656L31.2255 10.1464L35.5352 9.67708L35.0668 13.9876L38.4457 16.7043L35.0668 19.4201L35.5352 23.7306L31.2255 23.2622L28.5089 26.6411L25.7922 23.2622L21.4825 23.7306L21.951 19.4201L18.572 16.7043L21.951 13.9876L21.4825 9.67708Z" fill="#0FAA00" stroke="#4C241D" stroke-width="1.75439" stroke-linecap="round" stroke-linejoin="round"/>
  <path d="M24.9911 13.1858L27.149 13.4209L28.5086 11.7288L29.8683 13.4209L32.0262 13.1858L31.792 15.3446L33.4841 16.7043L31.792 18.0639L32.0262 20.2218L29.8683 19.9876L28.5086 21.6788L27.149 19.9876L24.9911 20.2218L25.2253 18.0639L23.5332 16.7043L25.2253 15.3446L24.9911 13.1858Z" fill="#FFCE56"/>
</svg>