<svg xmlns="http://www.w3.org/2000/svg" width="51" height="51" viewBox="0 0 51 51" fill="none">
  <path d="M31.839 37.7818C42.054 37.7818 50.3348 29.501 50.3348 19.2861C50.3348 9.07112 42.054 0.790283 31.839 0.790283C21.6241 0.790283 13.3433 9.07112 13.3433 19.2861C13.3433 29.501 21.6241 37.7818 31.839 37.7818Z" fill="#FFDED5"/>
  <path d="M35.3246 3.3024C35.8099 3.3024 36.2033 2.90897 36.2033 2.42365C36.2033 1.93832 35.8099 1.54489 35.3246 1.54489C34.8392 1.54489 34.4458 1.93832 34.4458 2.42365C34.4458 2.90897 34.8392 3.3024 35.3246 3.3024Z" fill="#4C241D"/>
  <path d="M46.8331 14.8109C47.3184 14.8109 47.7119 14.4175 47.7119 13.9321C47.7119 13.4468 47.3184 13.0534 46.8331 13.0534C46.3478 13.0534 45.9543 13.4468 45.9543 13.9321C45.9543 14.4175 46.3478 14.8109 46.8331 14.8109Z" fill="#4C241D"/>
  <path d="M50.1212 8.23459C50.6065 8.23459 50.9999 7.84116 50.9999 7.35584C50.9999 6.87051 50.6065 6.47708 50.1212 6.47708C49.6359 6.47708 49.2424 6.87051 49.2424 7.35584C49.2424 7.84116 49.6359 8.23459 50.1212 8.23459Z" fill="#4C241D"/>
  <path d="M44.9916 6.54453C46.1266 6.54453 47.0467 5.62443 47.0467 4.48944C47.0467 3.35445 46.1266 2.43436 44.9916 2.43436C43.8566 2.43436 42.9365 3.35445 42.9365 4.48944C42.9365 5.62443 43.8566 6.54453 44.9916 6.54453Z" fill="#FFCE56" stroke="#4C241D" stroke-width="1.64407" stroke-linecap="round" stroke-linejoin="round"/>
  <path d="M24.0299 50.1123C36.7418 50.1123 47.0468 39.8073 47.0468 27.0954C47.0468 14.3835 36.7418 4.07843 24.0299 4.07843C11.318 4.07843 1.01294 14.3835 1.01294 27.0954C1.01294 39.8073 11.318 50.1123 24.0299 50.1123Z" fill="#9DC1E4"/>
  <path d="M31.0172 43.125C26.8881 43.1261 22.8347 42.0161 19.2822 39.9114C15.7298 37.8067 12.8091 34.785 10.8264 31.163C8.84374 27.541 7.87219 23.4523 8.01364 19.3256C8.15508 15.1989 9.40432 11.1863 11.6303 7.70853C8.72775 9.5618 6.27802 12.0428 4.46169 14.9686C2.64536 17.8945 1.50873 21.1906 1.13554 24.6141C0.762362 28.0376 1.16215 31.5012 2.30544 34.7497C3.44874 37.9981 5.30639 40.9486 7.74151 43.3838C10.1766 45.8189 13.1271 47.6765 16.3756 48.8198C19.6241 49.9631 23.0877 50.3629 26.5112 49.9897C29.9347 49.6165 33.2308 48.4799 36.1566 46.6636C39.0825 44.8472 41.5635 42.3975 43.4167 39.4949C39.7177 41.87 35.4131 43.1302 31.0172 43.125Z" fill="#7D9FBC"/>
  <path d="M24.0299 50.1123C36.7418 50.1123 47.0468 39.8073 47.0468 27.0954C47.0468 14.3835 36.7418 4.07843 24.0299 4.07843C11.318 4.07843 1.01294 14.3835 1.01294 27.0954C1.01294 39.8073 11.318 50.1123 24.0299 50.1123Z" stroke="#4C241D" stroke-width="1.64407" stroke-linecap="round" stroke-linejoin="round"/>
  <path d="M15.1906 43.4966C15.3605 43.4966 15.5266 43.4465 15.6682 43.3527L17.1133 42.3852C17.2549 42.2914 17.4211 42.2413 17.5909 42.2413H18.3489C18.4618 42.2413 18.5737 42.2191 18.6781 42.1758C18.7825 42.1325 18.8773 42.0691 18.9571 41.9892C19.037 41.9093 19.1003 41.8144 19.1435 41.71C19.1866 41.6055 19.2088 41.4936 19.2087 41.3807V41.2261C19.2087 40.9979 19.2994 40.7789 19.4608 40.6175C19.6222 40.4561 19.8411 40.3654 20.0694 40.3654H24.4894C24.6024 40.3654 24.7142 40.3875 24.8186 40.4307C24.923 40.4739 25.0178 40.5372 25.0978 40.617L26.7246 42.2446V42.8702H27.9321C28.124 42.8702 28.3104 42.9343 28.4615 43.0525C28.6127 43.1706 28.7201 43.3359 28.7665 43.5221L29.0674 45.3503C29.1138 45.5364 29.2211 45.7017 29.3723 45.8199C29.5235 45.938 29.7099 46.0021 29.9017 46.0021H31.2038C31.3636 46.0021 31.5203 45.9576 31.6562 45.8735C31.7921 45.7895 31.9019 45.6692 31.9732 45.5262L32.1237 45.2253C32.195 45.0823 32.3048 44.962 32.4407 44.878C32.5766 44.7939 32.7333 44.7494 32.8931 44.7494H33.7414C34.0497 44.7494 34.3349 43.9577 34.4887 43.6898L36.6769 39.8599C36.7226 39.7795 36.755 39.6924 36.7731 39.6018L37.3091 36.9236C37.3497 36.7197 37.3152 36.5081 37.2121 36.3276L35.0304 32.5084C34.9251 32.3249 34.756 32.1865 34.5553 32.1196L33.5104 31.7711C33.3545 31.7191 33.2167 31.6236 33.1133 31.4959C33.0099 31.3681 32.9452 31.2135 32.9268 31.0502L32.7262 29.2417C32.7105 29.0989 32.6592 28.9623 32.5771 28.8444C32.4949 28.7265 32.3845 28.631 32.256 28.5668L31.8976 28.3876C31.7548 28.316 31.6348 28.2062 31.5509 28.0703C31.4669 27.9344 31.4225 27.7779 31.4225 27.6182V26.2733H30.7961L29.3271 28.7213C29.2158 28.9076 29.0383 29.0449 28.8301 29.1059C28.6219 29.1669 28.3984 29.147 28.2042 29.0501L27.0789 28.4879C26.8936 28.3951 26.748 28.2386 26.6687 28.0472C26.5895 27.8557 26.5818 27.6421 26.6473 27.4455L26.6604 27.4077C26.7039 27.2783 26.7159 27.1403 26.6955 27.0053C26.6751 26.8703 26.6228 26.7421 26.5431 26.6313C26.4633 26.5205 26.3583 26.4302 26.2368 26.368C26.1153 26.3057 25.9807 26.2733 25.8442 26.2733H23.8121C23.6523 26.2732 23.4956 26.3177 23.3596 26.4018C23.2237 26.4859 23.1139 26.6062 23.0427 26.7493L22.3365 28.164C22.2486 28.339 22.1038 28.4788 21.9259 28.5605C21.7479 28.6423 21.5475 28.661 21.3575 28.6136L20.0907 28.2972C19.9231 28.2551 19.7467 28.2645 19.5846 28.3242C19.4224 28.3839 19.2819 28.4911 19.1816 28.6317L16.5149 32.3646C16.4334 32.479 16.325 32.5716 16.1992 32.6342L12.1499 34.6581C11.9466 34.76 11.792 34.9384 11.7199 35.154C11.6478 35.3697 11.6641 35.6052 11.7652 35.8089L14.3916 41.0617C14.4696 41.2183 14.4983 41.3949 14.4738 41.5681L14.339 42.5126C14.3211 42.6348 14.3298 42.7594 14.3645 42.8779C14.3991 42.9964 14.4589 43.1061 14.5397 43.1994C14.6205 43.2928 14.7204 43.3677 14.8327 43.4189C14.9451 43.4702 15.0671 43.4967 15.1906 43.4966Z" fill="#6B4F5B" stroke="#4C241D" stroke-width="1.64407" stroke-linecap="round" stroke-linejoin="round"/>
  <path d="M3.25854 17.1702L4.30088 21.3412L8.41106 22.1632L11.6992 25.4513H16.6314V22.9852L12.5212 22.1632L8.41106 18.8751V13.9428L13.3433 15.5869L15.8094 13.1208L13.0317 6.87335C8.77448 9.19539 5.35543 12.7976 3.25854 17.1702Z" fill="#6B4F5B" stroke="#4C241D" stroke-width="1.64407" stroke-linecap="round" stroke-linejoin="round"/>
  <path d="M22.4153 23.1767L25.798 22.9662L28.9324 21.9716" stroke="#4C241D" stroke-width="1.64407" stroke-linecap="round" stroke-linejoin="round"/>
  <path d="M16.6316 15.5869L15.8096 16.4089" stroke="#4C241D" stroke-width="1.64407" stroke-linecap="round" stroke-linejoin="round"/>
  <path d="M26.4958 46.8242L27.3179 47.6462" stroke="#4C241D" stroke-width="1.64407" stroke-linecap="round" stroke-linejoin="round"/>
  <path d="M36.3604 27.9174L35.5384 25.4513L32.2503 23.8072L31.4282 21.3411L37.1825 22.9852L38.0045 27.0954L36.3604 27.9174Z" fill="#6B4F5B" stroke="#4C241D" stroke-width="1.64407" stroke-linecap="round" stroke-linejoin="round"/>
  <path d="M15.8096 19.6971L17.4536 20.5191" stroke="#4C241D" stroke-width="1.64407" stroke-linecap="round" stroke-linejoin="round"/>
  <path d="M20.7417 19.6971L21.5637 18.875" stroke="#4C241D" stroke-width="1.64407" stroke-linecap="round" stroke-linejoin="round"/>
</svg>