<svg xmlns="http://www.w3.org/2000/svg" width="52" height="55" viewBox="0 0 52 55" fill="none">
  <path d="M25.0076 48.0516C35.9888 48.0516 44.8907 39.1496 44.8907 28.1685C44.8907 17.1873 35.9888 8.28537 25.0076 8.28537C14.0265 8.28537 5.12451 17.1873 5.12451 28.1685C5.12451 39.1496 14.0265 48.0516 25.0076 48.0516Z" fill="#E5EFEF"/>
  <path d="M39.342 50.826V42.5028H44.8907V39.7284H12.9853C11.1458 39.7284 9.38156 40.4592 8.08081 41.7599C6.78007 43.0607 6.04932 44.8249 6.04932 46.6644C6.04932 48.5039 6.78007 50.2681 8.08081 51.5689C9.38156 52.8696 11.1458 53.6004 12.9853 53.6004H44.8907V50.826H39.342Z" fill="#6B4F5B" stroke="#4C241D" stroke-width="1.84959" stroke-linecap="round" stroke-linejoin="round"/>
  <path d="M44.8908 50.826H12.9853C11.8816 50.826 10.8231 50.3875 10.0426 49.6071C9.26218 48.8266 8.82373 47.7681 8.82373 46.6644C8.82373 45.5607 9.26218 44.5022 10.0426 43.7217C10.8231 42.9413 11.8816 42.5028 12.9853 42.5028H44.8908C41.9925 44.8583 42.2329 48.2578 44.8908 50.826Z" fill="white" stroke="#4C241D" stroke-width="1.84959" stroke-linecap="round" stroke-linejoin="round"/>
  <path d="M6.83173 15.8807C6.67363 14.9634 6.78461 14.02 7.15125 13.1645C7.51789 12.3089 8.12449 11.5779 8.89772 11.0598C8.89772 11.0598 12.3407 17.2559 15.0939 20.0118C15.0939 20.0118 9.58485 24.8327 7.51885 19.3237L6.83173 15.8807Z" fill="#EDEBDC" stroke="#4C241D" stroke-width="1.84959" stroke-linecap="round" stroke-linejoin="round"/>
  <path d="M24.1809 18.5247C24.1809 18.5247 21.5915 22.9036 19.6152 26.5704C16.3276 32.6796 10.9637 33.0948 4.76577 27.5877C2.85885 25.9385 1.53762 23.7159 1 21.2528C1 21.2528 3.38875 23.452 6.14186 23.452C4.74996 22.157 3.85149 20.4185 3.60028 18.534C3.34907 16.6495 3.76076 14.7364 4.76484 13.122C4.76484 13.122 8.37155 18.2814 12.0263 20.1153C12.9423 20.5022 13.9623 20.5674 14.92 20.3003C16.7021 19.7398 19.3341 14.5083 24.1809 18.5247Z" fill="white" stroke="#4C241D" stroke-width="1.84959" stroke-linecap="round" stroke-linejoin="round"/>
  <path d="M23.6203 34.1796C24.6418 34.1796 25.4699 33.3515 25.4699 32.33C25.4699 31.3085 24.6418 30.4804 23.6203 30.4804C22.5988 30.4804 21.7708 31.3085 21.7708 32.33C21.7708 33.3515 22.5988 34.1796 23.6203 34.1796Z" stroke="#4C241D" stroke-width="1.84959" stroke-linecap="round" stroke-linejoin="round"/>
  <path d="M41.1916 36.954C41.7024 36.954 42.1164 36.54 42.1164 36.0292C42.1164 35.5185 41.7024 35.1044 41.1916 35.1044C40.6809 35.1044 40.2668 35.5185 40.2668 36.0292C40.2668 36.54 40.6809 36.954 41.1916 36.954Z" fill="#4C241D"/>
  <path d="M46.7405 1.31519V2.62377" stroke="#4C241D" stroke-width="1.84959" stroke-linecap="round" stroke-linejoin="round"/>
  <path d="M46.7405 6.54868V7.85726" stroke="#4C241D" stroke-width="1.84959" stroke-linecap="round" stroke-linejoin="round"/>
  <path d="M43.4692 4.58615H44.7778" stroke="#4C241D" stroke-width="1.84959" stroke-linecap="round" stroke-linejoin="round"/>
  <path d="M48.7029 4.58615H50.0115" stroke="#4C241D" stroke-width="1.84959" stroke-linecap="round" stroke-linejoin="round"/>
  <path d="M39.3421 45.2772H24.5454" stroke="#4C241D" stroke-width="1.84959" stroke-linecap="round" stroke-linejoin="round"/>
  <path d="M31.0188 48.0516H39.342" stroke="#4C241D" stroke-width="1.84959" stroke-linecap="round" stroke-linejoin="round"/>
  <path d="M12.5229 45.2772H21.7709" stroke="#4C241D" stroke-width="1.84959" stroke-linecap="round" stroke-linejoin="round"/>
  <path d="M19.9214 48.0516H25.4702" stroke="#4C241D" stroke-width="1.84959" stroke-linecap="round" stroke-linejoin="round"/>
  <path d="M26.395 10.135V5.51099" stroke="#4C241D" stroke-width="1.84959" stroke-linecap="round" stroke-linejoin="round"/>
  <path d="M22.6958 10.135L20.8462 8.28537" stroke="#4C241D" stroke-width="1.84959" stroke-linecap="round" stroke-linejoin="round"/>
  <path d="M30.0942 10.135L32.4062 7.82297" stroke="#4C241D" stroke-width="1.84959" stroke-linecap="round" stroke-linejoin="round"/>
  <path d="M45.1684 15.8807C45.3265 14.9634 45.2155 14.02 44.8489 13.1645C44.4822 12.3089 43.8756 11.5779 43.1024 11.0598C43.1024 11.0598 39.6594 17.2559 36.9062 20.0118C36.9062 20.0118 42.4162 24.8327 44.4812 19.3237L45.1684 15.8807Z" fill="#EDEBDC" stroke="#4C241D" stroke-width="1.84959" stroke-linecap="round" stroke-linejoin="round"/>
  <path d="M27.8191 18.5247C27.8191 18.5247 30.4085 22.9036 32.3848 26.5704C35.6725 32.6796 41.0363 33.0948 47.2343 27.5877C49.141 25.9388 50.4622 23.7165 51 21.2537C51 21.2537 48.6113 23.452 45.8572 23.452C47.2491 22.157 48.1476 20.4185 48.3988 18.534C48.65 16.6495 48.2383 14.7364 47.2343 13.122C47.2343 13.122 43.6229 18.2814 39.9728 20.1153C39.0568 20.5022 38.0368 20.5674 37.0791 20.3003C35.2979 19.7398 32.6659 14.5083 27.8191 18.5247Z" fill="white" stroke="#4C241D" stroke-width="1.84959" stroke-linecap="round" stroke-linejoin="round"/>
</svg>