<svg xmlns="http://www.w3.org/2000/svg" width="60" height="53" viewBox="0 0 60 53" fill="none">
  <path d="M6.96084 25.4774C6.96084 37.1187 16.398 46.5558 28.0393 46.5558C39.6805 46.5558 49.1177 37.1187 49.1177 25.4774C49.1177 13.8361 39.6805 4.39893 28.0393 4.39893C16.398 4.39893 6.96084 13.8361 6.96084 25.4774Z" fill="#E5EFEF"/>
  <path d="M21.6666 32.8303H42.2549C43.0349 32.8303 43.783 32.5204 44.3346 31.9689C44.8862 31.4173 45.196 30.6692 45.196 29.8891C45.196 29.1091 44.8862 28.361 44.3346 27.8094C43.783 27.2578 43.0349 26.948 42.2549 26.948H25.5882" stroke="#4C241D" stroke-width="1.96078" stroke-linecap="round" stroke-linejoin="round"/>
  <path d="M42.2549 26.948H26.5686" stroke="#4C241D" stroke-width="1.96078" stroke-linecap="round" stroke-linejoin="round"/>
  <path d="M1.0785 24.0068H8.92163L8.92163 43.6146H1.0785" fill="#FFE8DC"/>
  <path d="M1.0785 24.0068H8.92163L8.92163 43.6146H1.0785" stroke="#4C241D" stroke-width="1.96078" stroke-linecap="round" stroke-linejoin="round"/>
  <path d="M5.9599 27.9284C6.85345 25.8879 8.32228 24.1522 10.1867 22.9333C12.0512 21.7145 14.2304 21.0655 16.4579 21.0656H45.1961C45.9762 21.0656 46.7243 21.3755 47.2759 21.9271C47.8275 22.4786 48.1373 23.2267 48.1373 24.0068C48.1373 24.7868 47.8275 25.5349 47.2759 26.0865C46.7243 26.6381 45.9762 26.948 45.1961 26.948H52.0589C52.8389 26.948 53.587 27.2578 54.1386 27.8094C54.6902 28.361 55.0001 29.1091 55.0001 29.8891C55.0001 30.6692 54.6902 31.4173 54.1386 31.9689C53.587 32.5204 52.8389 32.8303 52.0589 32.8303H55.9805C56.7605 32.8303 57.5086 33.1402 58.0602 33.6918C58.6118 34.2433 58.9216 34.9914 58.9216 35.7715C58.9216 36.5515 58.6118 37.2996 58.0602 37.8512C57.5086 38.4028 56.7605 38.7127 55.9805 38.7127H52.0589C52.8389 38.7127 53.587 39.0225 54.1386 39.5741C54.6902 40.1257 55.0001 40.8738 55.0001 41.6538C55.0001 42.4339 54.6902 43.182 54.1386 43.7336C53.587 44.2851 52.8389 44.595 52.0589 44.595H35.8687V44.6225C36.3198 44.619 36.7671 44.7048 37.1849 44.875C37.6026 45.0451 37.9826 45.2963 38.3028 45.614C38.6231 45.9317 38.8773 46.3096 39.0508 46.726C39.2243 47.1424 39.3137 47.589 39.3138 48.0401C39.3138 48.9465 38.9537 49.8158 38.3128 50.4568C37.6719 51.0977 36.8026 51.4578 35.8962 51.4578H17.9824C16.353 51.4578 14.7396 51.1368 13.2342 50.5133C11.7288 49.8897 10.361 48.9757 9.20891 47.8235L8.74715 47.3617C7.66386 46.2782 6.78389 45.0091 6.14912 43.6146" fill="#FFE8DC"/>
  <path d="M5.9599 27.9284C6.85345 25.8879 8.32228 24.1522 10.1867 22.9333C12.0512 21.7145 14.2304 21.0655 16.4579 21.0656H45.1961C45.9762 21.0656 46.7243 21.3755 47.2759 21.9271C47.8275 22.4786 48.1373 23.2267 48.1373 24.0068C48.1373 24.7868 47.8275 25.5349 47.2759 26.0865C46.7243 26.6381 45.9762 26.948 45.1961 26.948H52.0589C52.8389 26.948 53.587 27.2578 54.1386 27.8094C54.6902 28.361 55.0001 29.1091 55.0001 29.8891C55.0001 30.6692 54.6902 31.4173 54.1386 31.9689C53.587 32.5204 52.8389 32.8303 52.0589 32.8303H55.9805C56.7605 32.8303 57.5086 33.1402 58.0602 33.6918C58.6118 34.2433 58.9216 34.9914 58.9216 35.7715C58.9216 36.5515 58.6118 37.2996 58.0602 37.8512C57.5086 38.4028 56.7605 38.7127 55.9805 38.7127H52.0589C52.8389 38.7127 53.587 39.0225 54.1386 39.5741C54.6902 40.1257 55.0001 40.8738 55.0001 41.6538C55.0001 42.4339 54.6902 43.182 54.1386 43.7336C53.587 44.2851 52.8389 44.595 52.0589 44.595H35.8687V44.6225C36.3198 44.619 36.7671 44.7048 37.1849 44.875C37.6026 45.0451 37.9826 45.2963 38.3028 45.614C38.6231 45.9317 38.8773 46.3096 39.0508 46.726C39.2243 47.1424 39.3137 47.589 39.3138 48.0401C39.3138 48.9465 38.9537 49.8158 38.3128 50.4568C37.6719 51.0977 36.8026 51.4578 35.8962 51.4578H17.9824C16.353 51.4578 14.7396 51.1368 13.2342 50.5133C11.7288 49.8897 10.361 48.9757 9.20892 47.8235L8.74715 47.3617C7.66386 46.2782 6.78389 45.0091 6.14911 43.6146" stroke="#4C241D" stroke-width="1.96078" stroke-linecap="round" stroke-linejoin="round"/>
  <path d="M52.0588 38.7127H32.451" stroke="#4C241D" stroke-width="1.96078" stroke-linecap="round" stroke-linejoin="round"/>
  <path d="M47.157 26.948H31.4707" stroke="#4C241D" stroke-width="1.96078" stroke-linecap="round" stroke-linejoin="round"/>
  <path d="M33.4314 32.8303H52.0588" stroke="#4C241D" stroke-width="1.96078" stroke-linecap="round" stroke-linejoin="round"/>
  <path d="M35.3923 44.595H25.5884L23.1727 42.1793C20.9532 39.9599 17.943 38.7129 14.8041 38.7127" stroke="#4C241D" stroke-width="1.96078" stroke-linecap="round" stroke-linejoin="round"/>
  <path d="M26.5687 40.6734C26.5687 40.6734 27.5491 34.7911 18.7255 27.9283L26.5687 40.6734Z" fill="#FFE8DC"/>
  <path d="M26.5687 40.6734C26.5687 40.6734 27.5491 34.7911 18.7255 27.9283" stroke="#F4AEAB" stroke-width="1.96078" stroke-linecap="round" stroke-linejoin="round"/>
  <path d="M26.5686 26.948L23.4931 32.1225L26.5686 26.948Z" fill="#FFE8DC"/>
  <path d="M26.5686 26.948L23.4931 32.1225" stroke="#F4AEAB" stroke-width="1.96078" stroke-linecap="round" stroke-linejoin="round"/>
  <path d="M27.5492 3.90874C27.5492 5.26238 28.6466 6.35972 30.0002 6.35972C31.3538 6.35972 32.4512 5.26238 32.4512 3.90874C32.4512 2.5551 31.3538 1.45776 30.0002 1.45776C28.6466 1.45776 27.5492 2.5551 27.5492 3.90874Z" stroke="#4C241D" stroke-width="1.96078" stroke-linecap="round" stroke-linejoin="round"/>
  <path d="M46.1765 7.34012V9.3009" stroke="#4C241D" stroke-width="1.96078" stroke-linecap="round" stroke-linejoin="round"/>
  <path d="M50.0981 11.2617H48.1374" stroke="#4C241D" stroke-width="1.96078" stroke-linecap="round" stroke-linejoin="round"/>
  <path d="M44.2158 11.2617H42.255" stroke="#4C241D" stroke-width="1.96078" stroke-linecap="round" stroke-linejoin="round"/>
  <path d="M46.1765 13.2225V15.1833" stroke="#4C241D" stroke-width="1.96078" stroke-linecap="round" stroke-linejoin="round"/>
  <path d="M16.7648 8.32051C16.7648 8.86197 17.2037 9.3009 17.7452 9.3009C18.2866 9.3009 18.7256 8.86197 18.7256 8.32051C18.7256 7.77905 18.2866 7.34012 17.7452 7.34012C17.2037 7.34012 16.7648 7.77905 16.7648 8.32051Z" fill="#4C241D"/>
</svg>