<svg width="18" height="16" viewBox="0 0 18 16" fill="none" xmlns="http://www.w3.org/2000/svg">
<path d="M2.46408 15.213H15.7214C17.1181 15.213 17.9298 14.4014 17.9298 12.794V4.57738C17.9298 2.96996 17.1105 2.16623 15.4873 2.16623H7.89501C7.36442 2.16623 7.04447 2.03359 6.65431 1.70586L6.17836 1.3079C5.66335 0.878723 5.26539 0.730469 4.49289 0.730469H2.16758C0.802029 0.730469 0.013916 1.51076 0.013916 3.08699V12.794C0.013916 14.4092 0.841048 15.213 2.46408 15.213ZM1.27023 3.14941C1.27023 2.37691 1.68379 1.98678 2.42506 1.98678H4.17295C4.68796 1.98678 5.00008 2.1116 5.39803 2.45495L5.87402 2.84508C6.38121 3.26647 6.79478 3.42251 7.56727 3.42251H15.464C16.2365 3.42251 16.6734 3.83608 16.6734 4.6476V5.1158H1.27023V3.14941ZM2.48749 13.9567C1.7072 13.9567 1.27023 13.5431 1.27023 12.7316V6.29407H16.6734V12.7394C16.6734 13.5431 16.2365 13.9567 15.464 13.9567H2.48749Z" fill="black"/>
</svg>
