<svg width="38" height="34" viewBox="0 0 38 34" fill="none" xmlns="http://www.w3.org/2000/svg">
<path d="M8.52371 33.8941H29.296C31.5425 33.8941 32.8557 32.6284 32.8557 30.3978V15.9537L34.8962 17.8205C35.2287 18.137 35.5925 18.3584 36.0354 18.3584C36.779 18.3584 37.38 17.8996 37.38 17.1402C37.38 16.6657 37.206 16.3651 36.9057 16.0962L31.4158 11.081V1.76282C31.4158 1.06669 30.9729 0.623749 30.277 0.623749H28.2043C27.524 0.623749 27.0494 1.06669 27.0494 1.76282V7.11008L20.8004 1.41479C20.2467 0.908533 19.5822 0.623749 18.9019 0.623749C18.2216 0.623749 17.5572 0.908533 17.0035 1.41479L0.898241 16.0962C0.613524 16.3651 0.423645 16.6657 0.423645 17.1402C0.423645 17.8996 1.0248 18.3584 1.76839 18.3584C2.22719 18.3584 2.59102 18.137 2.90746 17.8205L4.94827 15.9695V30.3978C4.94827 32.6284 6.26136 33.8941 8.52371 33.8941ZM23.4582 20.8422C23.4582 20.1145 22.9836 19.6557 22.2559 19.6557H15.5479C14.8202 19.6557 14.3298 20.1145 14.3298 20.8422V31.347H9.06162C8.04911 31.347 7.4954 30.7933 7.4954 29.7649V13.6439L18.3482 3.75618C18.5064 3.59796 18.6962 3.50305 18.9019 3.50305C19.1076 3.50305 19.2974 3.58216 19.4715 3.75618L30.3084 13.6439V29.7649C30.3084 30.7933 29.7546 31.347 28.7581 31.347H23.4582V20.8422Z" fill="#F3F4F6"/>
</svg>
